<svg xmlns="http://www.w3.org/2000/svg" viewBox="0 0 819.77 918.89">
	<defs>
		<style>.cls-1 {
						fill: none;
					}
					.cls-2,
					.cls-4 {
						fill: #fff;
					}
					.cls-3 {
						fill: var(--theme, #ffaa00);
					}
					.cls-4 {
						stroke: #fff;
						stroke-miterlimit: 10;
					}
				</style>
	</defs>
	<g id="Layer_6" data-name="Layer 6">
		<polygon class="cls-1" points="17.04 228.44 409.57 17.04 804.19 227.42 805.47 684.95 413.35 900.7 12.19 679.85 17.04 228.44"></polygon>
		<path class="cls-2" d="M91.64,260.41,499,40.58,909.94,259.39q0,238.14-.08,476.29L503.78,959.47,90.17,730.2Z" transform="translate(-90.17 -40.58)"></path>
	</g>
	<g id="Layer_4" data-name="Layer 4">
		<path class="cls-3" d="M105.43,270.11,499.74,57,894.36,267.41l-.19,458.34L503.52,940.68l-397.66-218Z" transform="translate(-90.17 -40.58)"></path>
		<path class="cls-2" d="M894.17,725.75" transform="translate(-90.17 -40.58)"></path>
	</g>
	<g id="Layer_3" data-name="Layer 3">
		<polygon class="cls-4" points="102.07 288 272.11 117.45 306.83 151.66 409.83 49.53 512.62 152.68 546.84 117.96 717.39 288 683.43 321.96 717.39 357.45 683.43 390.89 648.2 355.91 614.24 390.89 477.9 254.3 443.94 288 478.15 322.98 443.94 356.17 477.9 390.89 444.2 424.85 478.15 459.42 444.45 493.02 478.15 528 443.69 560.68 477.9 596.68 443.43 629.87 478.15 664.85 444.45 698.04 477.64 733.02 443.94 767.23 477.13 801.19 409.73 869.62 341.3 800.68 375.01 766.72 341.3 732.25 375.01 698.55 341.3 663.57 375.26 630.38 341.81 596.42 375.01 562.21 341.56 527.74 375.26 494.04 341.56 459.42 375.52 425.11 341.05 390.89 375.52 357.45 341.05 321.96 375.26 288.25 340.79 253.53 204.96 390.64 169.99 356.43 136.79 390.38 102.07 355.91 136.03 323.23 102.07 288"></polygon>
	</g>
</svg>