<svg xmlns="http://www.w3.org/2000/svg" xmlns:xlink="http://www.w3.org/1999/xlink" xmlns:serif="http://www.serif.com/" width="100%" height="100%" viewBox="0 0 52 78" version="1.1" xml:space="preserve" style="fill-rule:evenodd;clip-rule:evenodd;stroke-linejoin:round;stroke-miterlimit:2;">
    <g id="Layer_1" transform="matrix(1,0,0,1,-237.42,-75.61)">
        <path d="M259.82,78.72C259.831,77.014 261.234,75.615 262.94,75.61C264.648,75.61 266.055,77.012 266.06,78.72L266.06,127.27C266.06,128.982 264.652,130.39 262.94,130.39C261.23,130.385 259.825,128.98 259.82,127.27L259.82,78.72ZM248.6,84.09C248.597,84.031 248.595,83.972 248.595,83.913C248.595,82.202 250.003,80.793 251.715,80.793C253.427,80.793 254.835,82.202 254.835,83.913C254.835,83.972 254.833,84.031 254.83,84.09L254.83,127.15C254.807,131.587 258.394,135.277 262.83,135.38L262.95,135.38C267.397,135.375 271.055,131.717 271.06,127.27L271.06,84.09C271.057,84.031 271.055,83.972 271.055,83.913C271.055,82.202 272.463,80.793 274.175,80.793C275.887,80.793 277.295,82.202 277.295,83.913C277.295,83.972 277.293,84.031 277.29,84.09L277.29,127.09C277.334,134.987 270.897,141.533 263,141.62L262.92,141.62C255.054,141.609 248.585,135.136 248.58,127.27L248.6,84.09ZM288.51,127.27C288.5,141.29 276.96,152.821 262.94,152.821C259.526,152.821 256.146,152.137 253,150.81C249.979,149.524 247.233,147.67 244.91,145.35C240.124,140.552 237.429,134.047 237.42,127.27L237.42,110.4C237.42,108.688 238.828,107.28 240.54,107.28C242.252,107.28 243.66,108.688 243.66,110.4L243.66,127.27C243.671,137.872 252.388,146.594 262.99,146.61L263,146.61C273.626,146.506 282.303,137.717 282.27,127.09L282.27,95.44C282.27,93.728 283.678,92.32 285.39,92.32C287.102,92.32 288.51,93.728 288.51,95.44L288.51,127.27Z" style="fill:white;fill-rule:nonzero;"></path>
    </g>
</svg>