<svg width="512" height="512" viewBox="0 0 512 512" fill="none" xmlns="http://www.w3.org/2000/svg">
<g clip-path="url(#clip0_721_10622)">
<rect width="512" height="512" fill="#A25B87"/>
<path d="M130.195 512H0V444.22C4.78094 441.027 9.64238 437.959 14.4648 434.832C23.7779 428.792 33.069 422.716 42.3918 416.693C59.0666 405.924 75.6731 395.052 92.3454 384.28C97.3824 381.026 102.41 377.76 107.457 374.521C109.406 373.27 111.584 372.623 113.696 371.816C124.461 367.703 135.21 363.544 145.987 359.466C156.378 355.534 166.75 351.546 177.139 347.606C186.291 344.133 195.45 340.671 204.563 337.1C217.367 332.085 230.202 327.146 243.055 322.257C254.854 317.769 266.662 313.303 278.451 308.793C288.73 304.861 299.028 300.975 309.281 296.97C311.683 296.03 313.63 294.655 315.569 293.037C319.789 289.518 323.838 285.8 328.065 282.285C330.858 279.963 333.571 277.521 336.342 275.165C339.42 272.548 342.459 269.889 345.526 267.257C348.226 264.94 350.916 262.61 353.621 260.3C356.817 257.573 359.993 254.819 363.171 252.073C365.864 249.748 368.56 247.421 371.257 245.101C374.199 242.574 377.09 239.989 380.117 237.559C381.756 236.242 383.237 234.744 384.846 233.383C390.401 228.687 395.913 223.941 401.431 219.199C404.251 216.777 407.105 214.384 409.839 211.859C410.761 211.008 411.678 210.247 413.042 210.405C415.964 210.447 418.881 210.474 421.769 209.925C422.811 210.02 423.806 209.656 424.833 209.598C429.092 210.134 433.344 210.113 437.588 209.442C438.166 209.432 438.742 209.4 439.31 209.293C439.469 209.266 439.63 209.225 439.791 209.23C448.377 209.503 456.939 208.644 465.525 208.673C470.862 208.69 476.184 208.049 481.534 208.176C483.831 208.229 485.958 207.376 487.961 206.219C493.215 203.185 498.577 200.341 503.946 197.519C505.668 196.614 507.253 195.472 509.046 194.701C510.024 194.279 510.976 193.765 512 194.567V318.423C511.376 319.294 510.59 319.945 509.639 320.469C506.651 322.116 503.643 323.728 500.579 325.233C491.391 329.746 482.353 334.554 473.235 339.205C461.515 345.186 449.814 351.206 438.115 357.227C425.836 363.547 413.539 369.833 401.255 376.143C389.549 382.158 377.838 388.164 366.13 394.174C353.773 400.518 341.408 406.856 329.056 413.207C317.208 419.298 305.353 425.377 293.508 431.473C281.302 437.756 269.084 444.013 256.873 450.287C245.172 456.299 233.464 462.302 221.763 468.32C209.049 474.86 196.363 481.451 183.591 487.876C181.922 488.715 180.283 489.627 178.678 490.569C173.634 493.53 168.157 495.208 162.459 496.235C160.581 496.574 158.883 497.267 157.244 498.167C149.624 502.345 141.848 506.233 134.296 510.536C132.993 511.278 131.444 511.192 130.195 512.002V512Z" fill="#D756A6"/>
<path d="M0 439.832V309.152C0.807394 308.295 1.91238 307.939 2.92955 307.454C13.3915 302.441 23.734 297.182 34.1593 292.091C45.8995 286.359 57.5787 280.502 69.3164 274.77C79.6686 269.714 89.9939 264.601 100.319 259.486C104.608 257.361 108.969 255.385 113.221 253.185C114.306 252.624 115.445 252.192 116.662 252.007C117.672 251.958 118.519 251.448 119.385 251.007C124.446 248.419 129.515 245.853 134.571 243.255C142.37 239.247 150.151 235.203 157.949 231.198C163.799 228.193 169.636 225.163 175.514 222.209C176.246 221.841 176.941 221.433 177.497 220.821C179.554 219.38 181.851 218.392 184.11 217.328C186.864 216.467 189.46 215.296 191.711 213.45C193.77 212.057 196.028 211.047 198.273 210.008C201.341 208.991 204.249 207.654 206.817 205.654C208.871 204.256 211.135 203.254 213.376 202.21C216.125 201.344 218.718 200.178 220.967 198.331C223.029 196.938 225.29 195.924 227.541 194.887C230.639 193.841 233.6 192.531 236.159 190.443C237.798 189.282 239.64 188.46 241.289 187.313C242.979 186.14 244.823 185.881 246.789 186.523C250.653 187.233 254.505 187.291 258.349 186.381C258.788 186.279 259.23 186.24 259.678 186.284C265.701 186.62 271.719 186.85 277.722 186.001C278.178 185.935 278.617 185.767 279.088 185.796C285.303 186.059 291.52 186.486 297.711 185.432C298.165 185.323 298.619 185.242 299.087 185.286C302.285 185.784 305.505 185.474 308.712 185.532C311.203 185.576 313.696 185.552 316.181 185.532C318.928 185.806 320.367 183.613 322.126 182.196C326.407 178.749 330.546 175.124 334.686 171.512C338.466 168.214 342.323 165.006 346.123 161.737C348.943 159.313 351.816 156.935 354.612 154.49C358.327 151.241 362.152 148.126 365.867 144.88C368.725 142.384 371.633 139.938 374.543 137.496C377.146 135.313 379.673 133.032 382.297 130.869C385.29 128.4 388.169 125.797 391.164 123.331C393.537 121.378 395.813 119.309 398.16 117.321C399.409 116.262 400.748 115.714 402.251 115.367C409.273 113.738 416.291 112.089 423.314 110.459C435.622 107.601 447.938 104.778 460.232 101.854C464.956 100.729 469.754 99.9072 474.392 98.4144C474.621 98.3217 474.86 98.2778 475.106 98.2753C477.153 98.1387 479.08 97.507 481.004 96.8459C481.253 96.8069 481.502 96.7898 481.753 96.7825C489.908 95.0653 497.996 93.0748 506.116 91.2161C506.751 91.0722 507.324 90.7478 507.944 90.5599C508.192 90.4795 508.446 90.4502 508.707 90.4599C509.795 90.6478 510.966 89.7989 512 90.7063V192.131C511.493 192.96 510.995 193.738 510.046 194.211C505.409 196.514 500.928 199.119 496.369 201.571C493.593 203.061 490.749 204.439 488.081 206.132C485.915 207.505 483.527 208.264 480.953 208.21C473.179 208.044 465.427 208.703 457.661 208.832C451.926 208.93 446.184 209.152 440.44 209.203C439.786 209.208 439.161 209.425 438.513 209.427C437.571 209.427 436.627 209.498 435.688 209.376C435.015 209.215 434.639 208.642 434.136 208.244C433.344 207.617 432.434 207.227 431.422 207.4C428.109 207.971 424.772 207.72 421.45 207.715C418.276 207.713 415.127 207.883 411.976 208.21C410.783 208.335 409.827 208.832 408.929 209.583C403.265 214.33 397.682 219.17 392.084 223.992C385.503 229.663 378.875 235.283 372.331 240.994C364.623 247.721 356.79 254.305 349.084 261.032C342.908 266.425 336.615 271.689 330.412 277.048C325.375 281.4 320.282 285.691 315.286 290.094C312.518 292.533 309.556 294.475 306.051 295.814C279.273 306.054 252.483 316.26 225.704 326.502C197.638 337.237 169.567 347.958 141.489 358.661C131.093 362.625 120.709 366.623 110.296 370.543C107.527 371.584 105.059 373.136 102.62 374.738C84.9057 386.383 67.0722 397.843 49.3096 409.415C34.2008 419.257 19.0628 429.051 3.93696 438.866C2.78319 439.615 1.65138 440.898 0.00243926 439.84L0 439.832Z" fill="#C5484F"/>
<path d="M139.948 0H512V11.2157C511.286 12.3646 510.088 12.6207 508.898 12.9159C503.146 14.3428 497.387 15.7454 491.65 17.2358C467.843 23.4291 443.911 29.132 420.089 35.2668C408.688 38.2012 397.265 41.0381 385.845 43.8895C382.698 44.675 380.085 46.48 377.344 48.0095C368.065 53.1807 358.744 58.2787 349.444 63.4085C339.218 69.0456 328.993 74.6852 318.76 80.3052C309.806 85.2228 300.861 90.1525 291.926 95.1066C283.559 99.7437 275.161 104.322 266.792 108.952C256.503 114.643 246.168 120.243 235.921 126.01C234.437 126.844 232.901 127.58 231.408 128.405C230.079 129.139 228.63 129.222 227.156 129.222C219.519 129.217 211.867 128.885 204.252 129.293C189.882 130.061 175.517 129.473 161.152 129.695C160.147 129.71 159.262 129.951 158.352 130.354C151.159 133.542 143.936 136.669 136.733 139.833C130.718 142.475 124.698 145.109 118.68 147.751C111.845 150.751 105.006 153.734 98.1684 156.725C92.0727 159.388 85.9819 162.062 79.8886 164.725C72.9757 167.748 66.0604 170.765 59.1525 173.792C52.986 176.495 46.8171 179.195 40.6507 181.895C33.8135 184.886 26.9738 187.874 20.1366 190.865C15.2312 193.011 10.3234 195.148 5.44247 197.348C4.40335 197.816 3.34715 198.226 2.29095 198.646C1.49576 198.96 0.724952 199.087 0.00537109 198.468V36.0839C2.64221 34.4521 5.73519 34.4228 8.6257 33.8203C31.662 29.0101 54.6886 24.1584 77.7274 19.3506C92.741 16.2186 107.762 13.1183 122.759 9.8985C125.166 9.38138 127.025 7.99588 129.027 6.80553C132.716 4.61263 136.518 2.60025 139.953 0L139.948 0Z" fill="#F5D55C"/>
<path d="M512 13.6524V86.3081C510.349 87.4814 508.344 87.5521 506.48 87.9839C482.644 93.5015 458.817 99.0703 434.976 104.571C423.687 107.176 412.42 109.888 401.104 112.379C398.645 112.92 396.56 114.001 394.694 115.638C385.986 123.285 377.041 130.656 368.274 138.23C359.937 145.436 351.555 152.588 343.169 159.735C334.537 167.089 325.975 174.529 317.281 181.812C316.447 182.51 315.547 182.578 314.564 182.612C306.378 182.905 298.177 182.886 290.003 183.227C283.268 183.508 276.519 183.11 269.828 183.683C263.737 184.205 257.668 183.891 251.592 184.064C250.382 184.098 249.265 184.095 248.39 182.837C247.538 181.612 246.187 182.19 245.055 182.649C242.789 183.564 240.796 185.01 238.611 186.071C230.134 190.181 221.85 194.662 213.467 198.953C203.497 204.053 193.548 209.2 183.605 214.357C174.095 219.289 164.564 224.18 155.054 229.109C145.038 234.3 135.054 239.554 124.968 244.609C113.14 250.536 101.393 256.629 89.4476 262.31C79.1807 267.196 69.1554 272.562 58.869 277.397C46.5947 283.168 34.6253 289.552 22.3777 295.365C15.921 298.428 9.56189 301.675 3.132 304.787C2.17094 305.253 1.19523 306.168 -0.00244141 305.251V200.412C0.38784 199.66 0.992775 199.219 1.78797 198.877C14.3867 193.472 26.9123 187.901 39.4745 182.412C50.6975 177.509 61.9108 172.577 73.1289 167.662C82.7128 163.462 92.3088 159.286 101.9 155.105C111.567 150.892 121.224 146.655 130.878 142.413C140.087 138.367 149.309 134.352 158.522 130.312C159.425 129.917 160.371 129.715 161.364 129.715C162.34 129.715 163.313 129.695 164.289 129.712C185.401 130.081 206.5 129.034 227.61 129.229C228.766 129.239 229.863 128.993 230.966 128.732C232.371 128.702 233.617 128.285 234.591 127.212C235.208 126.719 235.896 126.361 236.627 126.07C237.579 125.863 238.433 125.475 239.081 124.714C239.691 124.243 240.362 123.885 241.077 123.612C242.333 123.317 243.465 122.78 244.387 121.851C244.728 121.575 245.104 121.363 245.509 121.199C246.748 120.85 247.894 120.333 248.797 119.372C249.404 118.901 250.078 118.545 250.79 118.265C251.736 118.057 252.578 117.665 253.224 116.911C253.834 116.443 254.502 116.084 255.217 115.808C256.473 115.513 257.605 114.977 258.527 114.047C258.869 113.772 259.244 113.559 259.652 113.396C260.896 113.045 262.044 112.525 262.947 111.562C263.559 111.089 264.235 110.728 264.957 110.449C266.218 110.154 267.355 109.62 268.279 108.686C268.621 108.41 268.996 108.198 269.404 108.032C270.643 107.683 271.789 107.166 272.694 106.205C273.302 105.734 273.975 105.378 274.687 105.098C275.634 104.89 276.475 104.498 277.122 103.744C277.731 103.276 278.4 102.917 279.114 102.641C280.371 102.346 281.502 101.81 282.424 100.88C282.766 100.605 283.142 100.392 283.547 100.229C284.786 99.8801 285.932 99.363 286.835 98.402C287.442 97.9312 288.115 97.575 288.828 97.2945C289.774 97.0872 290.618 96.692 291.264 95.9383C291.877 95.4675 292.547 95.109 293.267 94.8333C294.533 94.5357 295.67 93.9991 296.579 93.0405C297.189 92.5672 297.863 92.2136 298.577 91.9306C299.524 91.7233 300.368 91.3305 301.014 90.5768C301.624 90.1085 302.292 89.7499 303.007 89.4743C304.263 89.1791 305.395 88.6425 306.317 87.7131C306.659 87.4375 307.034 87.2253 307.439 87.0619C308.678 86.713 309.825 86.1959 310.727 85.2348C311.335 84.7641 312.008 84.4079 312.72 84.1274C313.667 83.9201 314.51 83.5249 315.157 82.7712C315.769 82.3004 316.44 81.9418 317.16 81.6662C318.425 81.3686 319.562 80.832 320.472 79.8734C321.082 79.4002 321.755 79.0465 322.47 78.7635C323.416 78.5562 324.26 78.1634 324.907 77.4097C325.516 76.9414 326.185 76.5828 326.899 76.3072C328.156 76.012 329.287 75.4754 330.21 74.546C330.551 74.2704 330.927 74.0582 331.332 73.8947C332.571 73.5459 333.717 73.0288 334.62 72.0677C335.227 71.597 335.9 71.2408 336.613 70.9603C337.559 70.753 338.401 70.3603 339.047 69.6065C339.657 69.1382 340.325 68.7796 341.04 68.504C342.296 68.2088 343.428 67.6722 344.35 66.7428C344.691 66.4672 345.067 66.255 345.474 66.0916C346.718 65.7403 347.867 65.2207 348.77 64.2572C349.382 63.784 350.058 63.423 350.78 63.1449C352.041 62.8498 353.178 62.3156 354.102 61.3814C354.444 61.1057 354.819 60.8935 355.227 60.7276C356.466 60.3788 357.612 59.8617 358.517 58.9006C359.124 58.4299 359.798 58.0737 360.51 57.7932C361.456 57.5859 362.298 57.1932 362.944 56.4394C363.554 55.9711 364.223 55.6125 364.937 55.3369C366.193 55.0417 367.325 54.5051 368.247 53.5757C368.589 53.3001 368.964 53.0879 369.372 52.922C370.616 52.5708 371.765 52.0512 372.667 51.0877C373.28 50.6145 373.955 50.2535 374.677 49.9754C375.938 49.6802 377.075 49.146 377.999 48.2118C378.341 47.9362 378.717 47.7215 379.124 47.5581C380.363 47.2044 381.519 46.7092 382.38 45.6921C382.976 45.1823 383.634 44.7944 384.405 44.6212C385.029 44.609 385.639 44.5066 386.23 44.2944C386.42 44.2236 386.617 44.1846 386.817 44.1553C387.32 44.1724 387.774 43.9724 388.237 43.8236C388.42 43.7504 388.613 43.7065 388.805 43.6772C389.298 43.687 389.742 43.4821 390.201 43.3382C390.384 43.2674 390.571 43.2211 390.764 43.1918C391.254 43.1991 391.698 42.9942 392.152 42.8503C392.335 42.7772 392.523 42.7333 392.716 42.704C393.206 42.7113 393.647 42.5064 394.103 42.3625C394.286 42.2893 394.474 42.2454 394.667 42.2161C395.157 42.2234 395.599 42.0185 396.055 41.8746C396.238 41.8015 396.426 41.7575 396.618 41.7283C397.109 41.7356 397.55 41.5307 398.006 41.3868C398.189 41.3136 398.377 41.2697 398.57 41.2404C399.06 41.2477 399.502 41.0428 399.958 40.8989C400.141 40.8258 400.328 40.7818 400.521 40.7526C401.011 40.7599 401.453 40.555 401.909 40.4111C402.092 40.3379 402.28 40.294 402.473 40.2647C402.963 40.272 403.404 40.0671 403.86 39.9232C404.043 39.85 404.231 39.8061 404.424 39.7769C404.914 39.7842 405.356 39.5793 405.812 39.4354C405.995 39.3622 406.183 39.3183 406.375 39.289C406.866 39.2963 407.307 39.0914 407.763 38.9475C407.946 38.8743 408.134 38.8304 408.327 38.8012C408.817 38.8085 409.259 38.6036 409.715 38.4597C409.898 38.3865 410.085 38.3426 410.278 38.3133C410.768 38.3206 411.21 38.1157 411.666 37.9718C411.849 37.9011 412.037 37.8547 412.23 37.8255C412.72 37.8328 413.161 37.6279 413.615 37.4864C413.796 37.4132 413.983 37.3718 414.176 37.3401C414.661 37.3474 415.101 37.1498 415.552 37.0083C415.73 36.9376 415.915 36.8937 416.103 36.8595C416.576 36.8595 417.015 36.6985 417.452 36.5424C417.625 36.4668 417.806 36.418 417.989 36.3765C418.362 36.3351 418.698 36.1741 419.047 36.0497C419.223 35.9741 419.406 35.9277 419.591 35.8911C420.072 35.8838 420.504 35.6838 420.95 35.5374C421.13 35.4667 421.316 35.4204 421.506 35.3911C421.994 35.396 422.431 35.1911 422.884 35.0496C423.065 34.9764 423.255 34.9349 423.445 34.9032C423.936 34.9106 424.377 34.7057 424.831 34.5617C425.014 34.491 425.202 34.4447 425.394 34.4154C425.885 34.4227 426.326 34.2178 426.782 34.0739C426.965 34.0007 427.153 33.9568 427.346 33.9275C427.836 33.9349 428.277 33.73 428.734 33.586C428.917 33.5129 429.104 33.469 429.297 33.4397C429.787 33.447 430.229 33.2421 430.685 33.0982C430.868 33.025 431.056 32.9811 431.248 32.9518C431.739 32.9591 432.18 32.7543 432.636 32.6103C432.819 32.5372 433.007 32.4933 433.2 32.464C433.69 32.4713 434.132 32.2664 434.588 32.1225C434.771 32.0493 434.959 32.0054 435.151 31.9761C435.642 31.9834 436.083 31.7785 436.539 31.6346C436.722 31.5615 436.91 31.5175 437.103 31.4883C437.593 31.4956 438.034 31.2907 438.491 31.1468C438.674 31.0736 438.861 31.0297 439.054 31.0004C439.544 31.0077 439.986 30.8028 440.442 30.6589C440.625 30.5858 440.813 30.5418 441.005 30.5126C441.496 30.5199 441.937 30.315 442.393 30.1711C442.576 30.0979 442.764 30.054 442.957 30.0247C443.447 30.032 443.889 29.8271 444.345 29.6832C444.528 29.6101 444.716 29.5661 444.908 29.5369C445.399 29.5442 445.84 29.3393 446.296 29.1954C446.479 29.1222 446.667 29.0783 446.86 29.049C447.35 29.0563 447.792 28.8514 448.248 28.7075C448.431 28.6343 448.618 28.5904 448.811 28.5612C449.301 28.5685 449.743 28.3636 450.199 28.2197C450.382 28.1465 450.57 28.1026 450.762 28.0733C451.253 28.0806 451.694 27.8757 452.15 27.7318C452.333 27.6586 452.521 27.6147 452.714 27.5855C453.204 27.5928 453.646 27.3879 454.102 27.244C454.285 27.1708 454.473 27.1269 454.665 27.0976C455.156 27.1049 455.597 26.9 456.053 26.7561C456.236 26.6829 456.424 26.639 456.617 26.6098C457.107 26.6171 457.549 26.4122 458.005 26.2683C458.188 26.1951 458.375 26.1512 458.568 26.1219C459.058 26.1292 459.5 25.9243 459.956 25.7804C460.139 25.7072 460.327 25.6633 460.52 25.6341C461.01 25.6414 461.451 25.4365 461.907 25.2926C462.09 25.2194 462.278 25.1755 462.471 25.1462C462.961 25.1535 463.403 24.9486 463.859 24.8047C464.042 24.7315 464.23 24.6876 464.422 24.6584C464.913 24.6657 465.354 24.4608 465.81 24.3169C465.993 24.2437 466.181 24.1998 466.374 24.1705C466.864 24.1778 467.306 23.9729 467.762 23.829C467.945 23.7558 468.132 23.7119 468.325 23.6827C468.815 23.69 469.257 23.4851 469.713 23.3412C469.896 23.268 470.084 23.2241 470.277 23.1948C470.767 23.2021 471.208 22.9972 471.665 22.8533C471.847 22.7801 472.035 22.7362 472.228 22.707C472.718 22.7143 473.16 22.5094 473.616 22.3655C473.799 22.2923 473.987 22.2484 474.179 22.2191C474.67 22.2264 475.111 22.0215 475.567 21.8776C475.75 21.8044 475.938 21.7605 476.131 21.7313C476.621 21.7386 477.063 21.5337 477.519 21.3898C477.702 21.3166 477.889 21.2727 478.082 21.2434C478.572 21.2507 479.014 21.0458 479.47 20.9019C479.653 20.8287 479.841 20.7848 480.034 20.7555C480.524 20.7629 480.965 20.558 481.422 20.4141C481.604 20.3409 481.792 20.297 481.985 20.2677C482.475 20.275 482.917 20.0701 483.373 19.9262C483.556 19.853 483.744 19.8091 483.936 19.7798C484.427 19.7872 484.868 19.5823 485.322 19.4408C485.502 19.3676 485.69 19.3261 485.883 19.2944C486.368 19.3018 486.807 19.1042 487.259 18.9627C487.437 18.892 487.622 18.8481 487.81 18.8139C488.283 18.8139 488.722 18.6529 489.159 18.4968C489.332 18.4212 489.513 18.3724 489.695 18.3309C490.069 18.2895 490.405 18.1285 490.754 18.0041C490.93 17.9285 491.113 17.8821 491.298 17.8455C491.779 17.8382 492.21 17.6382 492.657 17.4918C492.837 17.4211 493.023 17.3747 493.213 17.3455C493.701 17.3503 494.137 17.1455 494.591 17.004C494.772 16.9308 494.962 16.8893 495.152 16.8576C495.642 16.8649 496.084 16.66 496.538 16.5161C496.721 16.4454 496.908 16.399 497.101 16.3698C497.591 16.3771 498.033 16.1722 498.489 16.0283C498.672 15.9551 498.86 15.9112 499.052 15.8819C499.543 15.8892 499.984 15.6843 500.44 15.5404C500.623 15.4672 500.811 15.4233 501.004 15.3941C501.494 15.4014 501.936 15.1965 502.392 15.0526C502.575 14.9794 502.763 14.9355 502.955 14.9062C503.446 14.9135 503.887 14.7086 504.343 14.5647C504.526 14.4915 504.714 14.4501 504.907 14.4184C505.397 14.4257 505.839 14.2208 506.295 14.0769C506.478 14.0037 506.668 13.9622 506.861 13.9305C507.356 13.9378 507.8 13.7281 508.258 13.5817C508.446 13.5085 508.639 13.4646 508.839 13.4378C509.353 13.4378 509.817 13.2036 510.31 13.0938C510.519 13.0426 510.729 13.0255 510.944 13.0329C511.415 13.0499 511.741 13.3231 512.044 13.6427L512 13.6524Z" fill="#E47330"/>
<path d="M512 320.853V512H134.584C134.267 510.341 135.669 509.995 136.645 509.407C139.914 507.431 143.36 505.778 146.7 503.929C149.041 502.631 151.485 501.506 153.783 500.128C158.23 497.462 163.084 495.942 168.136 495.001C170.312 494.596 172.302 493.818 174.285 492.835C183.747 488.144 193.08 483.202 202.49 478.412C216.101 471.484 229.666 464.469 243.248 457.488C249.1 454.48 254.959 451.492 260.83 448.523C275.983 440.862 291.03 432.995 306.166 425.299C317.679 419.447 329.141 413.496 340.633 407.6C353.139 401.185 365.645 394.772 378.151 388.357C389.789 382.385 401.426 376.419 413.054 370.433C425.477 364.037 437.918 357.671 450.341 351.277C461.969 345.292 473.636 339.381 485.225 333.322C492.784 329.371 500.511 325.748 507.966 321.589C509.166 320.918 510.422 319.796 511.998 320.855L512 320.853Z" fill="#6645BA"/>
<path d="M0 59.9038V0H238.897C239.412 2.12721 237.904 3.02621 236.469 3.92944C230.05 7.95173 223.517 11.7883 216.997 15.646C214.071 17.3807 210.558 17.6002 207.272 18.2712C172.73 25.3493 138.238 32.6595 103.729 39.8726C71.281 46.651 38.816 53.3703 6.39333 60.2879C4.2777 60.7395 2.0185 61.8158 0 59.9038Z" fill="#51A451"/>
<path d="M-4.29939e-06 439.832C0.834221 439.73 1.51721 439.305 2.20264 438.857C13.4159 431.534 24.6292 424.211 35.8522 416.908C51.7025 406.595 67.5552 396.287 83.4201 385.995C90.6379 381.314 97.9069 376.714 105.108 372.011C108.627 369.713 112.655 368.65 116.494 367.157C130.41 361.747 144.38 356.476 158.33 351.153C171.521 346.121 184.718 341.098 197.907 336.061C209.505 331.634 221.097 327.187 232.693 322.758C246.641 317.428 260.591 312.105 274.538 306.783C285.91 302.444 297.284 298.109 308.656 293.77C310.678 292.999 312.176 291.46 313.769 290.106C321.728 283.344 329.646 276.536 337.554 269.711C342.825 265.162 348.028 260.53 353.307 255.985C359.688 250.495 366.135 245.077 372.521 239.591C377.741 235.105 382.897 230.544 388.113 226.051C393.203 221.668 398.34 217.333 403.446 212.967C404.309 212.23 405.2 211.503 405.944 210.652C408.829 207.354 412.715 206.91 416.723 206.749C421.743 206.547 426.782 207.178 431.792 206.308C433.619 205.99 434.51 207.454 435.441 208.691C434.939 209.581 434.068 209.457 433.275 209.422C426.86 209.144 420.481 210.269 414.069 209.903C412.649 209.823 411.529 210.34 410.529 211.223C404.292 216.738 397.992 222.187 391.637 227.566C385.222 232.993 378.904 238.535 372.494 243.97C367.193 248.463 361.971 253.061 356.717 257.612C351.468 262.162 346.143 266.633 340.893 271.184C335.825 275.58 330.722 279.939 325.641 284.322C321.418 287.962 317.333 291.762 312.913 295.17C310.681 296.889 307.954 297.55 305.41 298.502C283.283 306.773 261.274 315.347 239.186 323.721C219.009 331.371 198.87 339.128 178.734 346.887C157.688 354.995 136.669 363.179 115.526 371.023C106.991 374.189 99.8754 379.473 92.4112 384.276C64.5452 402.207 36.8084 420.34 9.00329 438.366C6.96407 439.688 4.94925 441.047 2.87832 442.318C1.99775 442.859 1.10498 443.591 -0.00488281 442.759V439.835L-4.29939e-06 439.832Z" fill="#C5484F"/>
<path d="M231.62 129.708C227.192 130.503 222.724 130.13 218.272 130.191C199.37 130.449 180.468 130.908 161.562 130.669C159.235 130.639 157.383 131.905 155.403 132.749C146.675 136.459 137.991 140.279 129.303 144.082C122.248 147.17 115.213 150.31 108.159 153.4C102.293 155.969 96.4043 158.484 90.5379 161.054C84.5959 163.657 78.6758 166.309 72.7386 168.919C65.9112 171.919 59.0739 174.902 52.2391 177.888C47.5582 179.932 42.8748 181.966 38.1915 184.003C32.1689 186.62 26.1415 189.221 20.1239 191.853C14.4794 194.321 8.85207 196.836 3.20519 199.297C2.17094 199.748 1.07084 200.046 0.00244141 200.414C0.00244141 199.763 0.00244141 199.114 0.00244141 198.463C5.72494 196.38 11.1889 193.699 16.7699 191.284C26.5977 187.033 36.3986 182.722 46.2093 178.429C54.6076 174.756 63.0011 171.07 71.3995 167.397C81.2102 163.106 91.0258 158.825 100.834 154.532C109.306 150.824 117.77 147.1 126.241 143.389C135.901 139.16 145.631 135.079 155.19 130.635C158.661 129.02 162.103 128.661 165.787 128.708C173.097 128.798 180.412 128.749 187.725 128.727C201.2 128.686 214.664 127.934 228.141 128.251C229.327 128.278 230.376 127.949 231.388 127.388C240.113 122.551 248.838 117.706 257.573 112.889C264.606 109.011 271.662 105.174 278.697 101.298C289.425 95.3873 300.141 89.4501 310.871 83.5398C319.399 78.8418 327.948 74.1828 336.471 69.4799C346.77 63.7964 357.051 58.0813 367.342 52.388C372.382 49.6 377.319 46.5924 382.515 44.1238C386.537 42.2115 391.081 41.7041 395.401 40.6138C426.004 32.8886 456.624 25.2318 487.234 17.5384C495.496 15.4626 503.746 13.3307 512 11.2231V13.1745C511.622 13.6624 510.922 13.1892 510.536 13.6624C509.978 14.1966 509.144 13.6136 508.585 14.1503C508.026 14.6844 507.192 14.1015 506.634 14.6381C506.075 15.1723 505.241 14.5893 504.682 15.126C504.124 15.6602 503.289 15.0772 502.731 15.6138C502.172 16.148 501.338 15.565 500.779 16.1017C500.221 16.6359 499.387 16.0529 498.828 16.5895C498.269 17.1237 497.435 16.5407 496.877 17.0774C496.318 17.6116 495.484 17.0286 494.925 17.5652C494.367 18.0994 493.532 17.5164 492.974 18.0531C492.415 18.5873 491.581 18.0043 491.022 18.5409C490.63 18.9897 489.949 18.5751 489.559 19.0288C489 19.563 488.166 18.98 487.607 19.5166C487.049 20.0508 486.215 19.4678 485.656 20.0045C485.097 20.5387 484.263 19.9557 483.705 20.4923C483.146 21.0265 482.312 20.4435 481.753 20.9802C481.195 21.5144 480.36 20.9314 479.802 21.468C479.243 22.0022 478.409 21.4192 477.85 21.9559C477.292 22.4901 476.458 21.9071 475.899 22.4437C475.34 22.9779 474.506 22.3949 473.948 22.9316C473.389 23.4658 472.555 22.8828 471.996 23.4194C471.438 23.9536 470.603 23.3706 470.045 23.9073C469.486 24.4415 468.652 23.8585 468.093 24.3951C467.535 24.9293 466.701 24.3463 466.142 24.883C465.583 25.4172 464.749 24.8342 464.191 25.3708C463.632 25.905 462.798 25.322 462.239 25.8587C461.681 26.3929 460.846 25.8099 460.288 26.3465C459.729 26.8807 458.895 26.2978 458.336 26.8344C457.778 27.3686 456.944 26.7856 456.385 27.3222C455.826 27.8564 454.992 27.2735 454.434 27.8101C453.875 28.3443 453.041 27.7613 452.482 28.2979C451.924 28.8321 451.089 28.2492 450.531 28.7858C449.972 29.32 449.138 28.737 448.579 29.2736C448.021 29.8078 447.187 29.2249 446.628 29.7615C446.069 30.2957 445.235 29.7127 444.677 30.2493C444.118 30.7835 443.284 30.2006 442.725 30.7372C442.167 31.2714 441.332 30.6884 440.774 31.225C440.215 31.7592 439.381 31.1763 438.822 31.7129C438.264 32.2471 437.43 31.6641 436.871 32.2008C436.312 32.7349 435.478 32.152 434.92 32.6886C434.361 33.2228 433.527 32.6398 432.968 33.1765C432.41 33.7107 431.575 33.1277 431.017 33.6643C430.458 34.1985 429.624 33.6155 429.065 34.1522C428.507 34.6864 427.672 34.1034 427.114 34.64C426.555 35.1742 425.721 34.5912 425.162 35.1279C424.604 35.6621 423.77 35.0791 423.211 35.6157C422.652 36.1499 421.818 35.5669 421.26 36.1036C420.701 36.6378 419.867 36.0548 419.308 36.5914C418.916 37.0402 418.235 36.6256 417.845 37.0793C417.286 37.6135 416.452 37.0305 415.893 37.5671C415.335 38.1013 414.5 37.5183 413.942 38.055C413.383 38.5892 412.549 38.0062 411.99 38.5428C411.432 39.077 410.598 38.494 410.039 39.0307C409.48 39.5649 408.646 38.9819 408.088 39.5185C407.529 40.0527 406.695 39.4697 406.136 40.0064C405.578 40.5406 404.743 39.9576 404.185 40.4942C403.626 41.0284 402.792 40.4454 402.233 40.9821C401.675 41.5163 400.841 40.9333 400.282 41.4699C399.723 42.0041 398.889 41.4211 398.331 41.9578C397.772 42.492 396.938 41.909 396.379 42.4456C395.821 42.9798 394.986 42.3968 394.428 42.9335C393.869 43.4677 393.035 42.8847 392.476 43.4213C391.918 43.9555 391.084 43.3725 390.525 43.9092C389.966 44.4434 389.132 43.8604 388.574 44.397C388.015 44.9312 387.181 44.3483 386.622 44.8849C386.066 45.4215 385.227 44.8312 384.671 45.3727C383.868 45.3923 383.368 46.0167 382.719 46.3484C381.671 47.1558 380.351 47.4876 379.307 48.2998C378.982 48.4633 378.656 48.6243 378.331 48.7877C377.282 49.5951 375.963 49.9268 374.919 50.7391C374.267 51.0635 373.619 51.3904 372.967 51.7148C371.918 52.5222 370.599 52.8539 369.555 53.6662C369.23 53.8296 368.903 53.9906 368.579 54.1541C367.53 54.9615 366.211 55.2932 365.167 56.1055C364.515 56.4299 363.866 56.7568 363.215 57.0812C362.476 57.6934 361.513 57.9276 360.776 58.5447C360.125 58.8691 359.476 59.196 358.824 59.5204C357.776 60.3278 356.456 60.6596 355.412 61.4718C355.088 61.6353 354.761 61.7963 354.436 61.9597C353.387 62.7671 352.068 63.0988 351.024 63.9111C350.372 64.2355 349.724 64.5624 349.072 64.8868C348.026 65.6942 346.704 66.0259 345.66 66.8382C345.335 67.0016 345.008 67.1626 344.684 67.3261C343.638 68.1334 342.316 68.4652 341.272 69.2775C340.62 69.6019 339.971 69.9287 339.32 70.2532C338.581 70.8654 337.618 71.0996 336.881 71.7167C336.23 72.0411 335.581 72.368 334.929 72.6924C333.883 73.4998 332.561 73.8315 331.517 74.6438C331.193 74.8073 330.866 74.9682 330.541 75.1317C329.495 75.9391 328.173 76.2708 327.129 77.0831C326.477 77.4075 325.829 77.7344 325.177 78.0588C324.438 78.671 323.475 78.9052 322.738 79.5223C322.087 79.8468 321.438 80.1736 320.787 80.498C319.74 81.3054 318.418 81.6372 317.374 82.4494C316.723 82.7739 316.074 83.1007 315.423 83.4251C314.684 84.0374 313.72 84.2716 312.983 84.8887C312.332 85.2131 311.683 85.54 311.032 85.8644C309.986 86.6718 308.664 87.0035 307.62 87.8158C307.295 87.9792 306.968 88.1402 306.644 88.3037C305.597 89.1111 304.275 89.4428 303.231 90.2551C302.58 90.5795 301.931 90.9063 301.28 91.2308C300.541 91.843 299.577 92.0772 298.841 92.6943C298.189 93.0187 297.541 93.3456 296.889 93.67C295.843 94.4774 294.521 94.8092 293.477 95.6214C292.825 95.9458 292.177 96.2727 291.525 96.5971C290.786 97.2094 289.823 97.4436 289.086 98.0607C288.435 98.3851 287.786 98.712 287.135 99.0364C286.088 99.8438 284.766 100.176 283.722 100.988C283.398 101.151 283.071 101.312 282.746 101.476C281.7 102.283 280.378 102.615 279.334 103.427C278.683 103.751 278.034 104.078 277.383 104.403C276.643 105.015 275.68 105.249 274.943 105.866C274.292 106.191 273.643 106.518 272.992 106.842C271.945 107.649 270.623 107.981 269.579 108.793C269.255 108.957 268.928 109.118 268.604 109.281C267.557 110.089 266.235 110.42 265.191 111.233C264.54 111.557 263.891 111.884 263.24 112.208C262.193 113.016 260.871 113.348 259.827 114.16C259.503 114.323 259.176 114.484 258.851 114.648C257.805 115.455 256.483 115.787 255.439 116.599C254.788 116.923 254.139 117.25 253.488 117.575C252.748 118.187 251.785 118.421 251.048 119.038C250.397 119.363 249.748 119.69 249.097 120.014C248.05 120.821 246.728 121.153 245.684 121.965L244.709 122.453C243.662 123.261 242.34 123.592 241.296 124.405C240.645 124.729 239.996 125.056 239.345 125.38C238.606 125.993 237.642 126.227 236.906 126.844C236.254 127.168 235.605 127.495 234.954 127.82C233.905 128.627 232.586 128.959 231.542 129.771L231.62 129.708Z" fill="#E47330"/>
<path d="M227.719 195.536C225.787 197.009 223.475 197.78 221.38 198.948C218.767 200.226 216.196 201.585 213.579 202.849C211.647 204.322 209.335 205.093 207.239 206.261C204.3 207.698 201.407 209.225 198.463 210.649C196.531 212.123 194.218 212.894 192.123 214.062C189.511 215.34 186.94 216.699 184.322 217.962C182.391 219.436 180.078 220.206 177.983 221.375C177.522 221.711 177.022 221.977 176.509 222.226C167.611 226.531 158.908 231.222 150.114 235.73C139.594 241.123 129.146 246.66 118.567 251.939C117.994 252.224 117.358 252.444 117.031 253.073C115.935 252.98 114.974 253.368 114.011 253.841C104.478 258.544 94.9261 263.213 85.3959 267.918C69.9676 275.536 54.6198 283.315 39.1086 290.755C28.2759 295.95 17.6261 301.502 6.79333 306.685C4.63459 307.72 2.55147 309.12 0.00488281 309.149V307.685C0.590304 306.863 1.43185 306.402 2.30998 305.951C7.87148 303.09 13.411 300.168 19.0994 297.577C29.2296 292.965 38.9549 287.545 49.0291 282.837C61.2424 277.126 73.1045 270.709 85.3008 264.977C96.2531 259.827 106.905 254.08 117.845 248.926C124.087 245.987 130.176 242.757 136.313 239.623C146.865 234.235 157.376 228.768 167.899 223.324C171.863 221.272 175.897 219.355 179.798 217.191C185.481 214.04 191.406 211.362 197.097 208.244C201.373 205.9 205.839 203.941 210.079 201.551C215.386 198.556 220.992 196.138 226.3 193.167C230.7 190.706 235.257 188.581 239.735 186.289C241.111 185.584 242.338 184.642 243.743 183.986C245.026 183.386 246.209 183.086 247.238 184.376C247.765 185.037 248.502 185.071 249.233 185.037C252.38 184.888 255.524 185.247 258.69 184.666C261.061 184.232 263.557 184.479 265.989 184.581C273.05 184.879 280.08 183.808 287.135 184.088C293.791 184.352 300.407 183.31 307.061 183.574C309.171 183.657 311.303 183.422 313.396 183.63C315.725 183.861 317.425 182.888 319.06 181.461C324.426 176.775 329.934 172.253 335.293 167.565C340.23 163.247 345.272 159.049 350.238 154.766C355.078 150.59 359.946 146.441 364.857 142.345C368.833 139.028 372.726 135.598 376.646 132.205C380.441 128.922 384.307 125.719 388.137 122.478C390.796 120.229 393.464 117.987 396.043 115.645C397.399 114.413 398.801 113.657 400.65 113.218C405.99 111.952 411.346 110.755 416.688 109.496C427.214 107.018 437.751 104.591 448.291 102.171C455.685 100.473 463.068 98.7314 470.452 96.9947C471.184 96.8215 471.886 96.7654 472.618 96.8922C473.543 97.2606 474.243 97.7948 474.118 98.9315C470.033 100.263 465.8 100.988 461.627 101.961C445.518 105.717 429.404 109.467 413.286 113.184C409.415 114.077 405.558 115.038 401.68 115.894C400.358 116.187 399.277 116.76 398.265 117.621C388.439 125.983 378.629 134.364 368.811 142.733C359.115 150.997 349.45 159.298 339.745 167.553C333.193 173.126 326.69 178.759 320.118 184.305C319.006 185.245 317.952 186.337 316.272 186.023C311.271 186.023 306.278 186.013 301.282 186.035C300.494 186.037 299.67 185.818 298.921 186.267H297.945C292.806 186.815 287.652 186.347 282.507 186.52C281.315 186.562 280.093 186.247 278.929 186.754H277.953C272.977 187.298 267.984 186.835 263.001 187.008C261.808 187.05 260.586 186.735 259.422 187.242H258.447C254.383 187.645 250.319 187.645 246.255 187.242C244.192 186.64 242.469 187.35 240.93 188.674C239.62 189.804 237.971 190.308 236.503 191.143C233.564 192.579 230.671 194.106 227.727 195.531L227.719 195.536Z" fill="#C5484F"/>
<path d="M512 320.852C510.454 321.16 509.105 321.96 507.804 322.755C505.509 324.158 503.082 325.284 500.696 326.499C491.22 331.331 481.668 336.02 472.277 341.015C466.466 344.106 460.483 346.848 454.721 350.016C448.667 353.343 442.354 356.156 436.305 359.476C430.463 362.683 424.37 365.391 418.537 368.598C412.483 371.926 406.168 374.733 400.121 378.055C394.352 381.226 388.332 383.9 382.571 387.066C376.446 390.432 370.055 393.276 363.937 396.635C358.31 399.726 352.443 402.341 346.821 405.421C340.62 408.819 334.168 411.717 327.973 415.105C322.197 418.264 316.184 420.947 310.422 424.113C304.297 427.48 297.909 430.326 291.791 433.683C286.161 436.773 280.302 439.398 274.67 442.464C265.608 447.401 256.2 451.65 247.109 456.517C241.235 459.661 235.171 462.424 229.339 465.632C223.285 468.959 216.969 471.767 210.923 475.089C205.081 478.299 198.968 480.972 193.16 484.217C186.562 487.902 179.61 490.883 173.043 494.623C171.97 495.232 170.743 495.41 169.562 495.686C166.957 496.291 164.303 496.711 161.737 497.447C158.84 498.279 156.276 499.925 153.612 501.301C149.865 503.236 146.19 505.309 142.479 507.314C140.196 508.548 137.908 509.775 135.618 510.997C135.174 511.234 134.825 511.556 134.584 511.995H130.195C131.905 510.17 134.281 509.402 136.376 508.231C143.106 504.472 149.97 500.95 156.732 497.245C158.991 496.008 161.389 495.301 163.874 494.949C169.706 494.123 174.89 491.63 179.917 488.8C184.666 486.127 189.628 483.887 194.431 481.326C201.814 477.389 209.381 473.806 216.762 469.869C222.499 466.81 228.412 464.103 234.108 460.978C240.238 457.617 246.623 454.755 252.746 451.404C258.595 448.203 264.686 445.486 270.521 442.279C276.504 438.988 282.749 436.21 288.728 432.929C294.645 429.682 300.812 426.938 306.717 423.691C312.63 420.44 318.799 417.693 324.707 414.454C330.695 411.171 336.935 408.388 342.913 405.104C348.758 401.894 354.851 399.182 360.686 395.977C366.745 392.652 373.06 389.837 379.109 386.515C384.883 383.346 390.901 380.665 396.665 377.499C402.721 374.174 409.037 371.355 415.088 368.037C420.935 364.832 427.026 362.115 432.861 358.912C438.92 355.587 445.235 352.772 451.284 349.45C457.058 346.282 463.076 343.601 468.84 340.435C474.896 337.11 481.209 334.288 487.263 330.975C493.184 327.733 499.289 324.88 505.27 321.767C507.495 320.608 509.527 319.069 511.998 318.408V320.847L512 320.852Z" fill="#6645BA"/>
<path d="M0 442.759C1.30012 442.464 2.34413 441.644 3.41984 440.949C11.4621 435.749 19.4628 430.482 27.4855 425.255C40.6087 416.705 53.7393 408.163 66.8722 399.628C72.5191 395.957 78.1806 392.308 83.8397 388.651C91.7478 383.544 99.6631 378.448 107.564 373.33C109.225 372.255 111.133 371.791 112.938 371.089C121.558 367.735 130.208 364.456 138.85 361.159C149.387 357.139 159.935 353.143 170.47 349.114C178.654 345.984 186.818 342.796 195.006 339.671C204.71 335.968 214.437 332.329 224.141 328.621C234.449 324.682 244.731 320.677 255.036 316.73C263.371 313.537 271.726 310.395 280.068 307.219C290.23 303.351 300.38 299.45 310.552 295.613C311.739 295.164 312.671 294.384 313.581 293.625C316.567 291.137 319.421 288.493 322.365 285.951C325.182 283.517 328.058 281.149 330.89 278.734C333.6 276.421 336.286 274.077 338.988 271.755C342.181 269.011 345.387 266.284 348.572 263.532C351.331 261.151 354.063 258.739 356.824 256.361C359.89 253.719 362.978 251.104 366.052 248.467C368.696 246.201 371.328 243.921 373.967 241.65C377.221 238.852 380.485 236.069 383.732 233.263C386.49 230.88 389.215 228.458 391.981 226.087C394.869 223.609 397.801 221.187 400.689 218.708C403.516 216.284 406.361 213.874 409.105 211.354C410.744 209.847 412.466 209.064 414.776 209.149C421.669 209.398 428.543 208.364 435.446 208.693C436.422 208.695 437.398 208.7 438.373 208.705C438.791 209.132 439.778 209.176 439.349 210.166H437.886C434.617 210.7 431.322 210.252 428.046 210.42C426.936 210.476 425.799 210.156 424.721 210.654H421.796C419.586 211.186 417.342 210.749 415.12 210.903C414.256 210.964 413.356 210.674 412.532 211.142C410.356 211.996 408.978 213.891 407.229 215.289C403.877 217.964 400.682 220.835 397.435 223.641C394.677 226.024 391.95 228.441 389.188 230.822C386.122 233.463 383.024 236.069 379.953 238.705C377.251 241.028 374.575 243.381 371.87 245.704C368.92 248.233 365.94 250.726 362.996 253.263C360.051 255.802 357.149 258.388 354.204 260.927C351.324 263.41 348.401 265.85 345.516 268.328C342.628 270.809 339.774 273.326 336.888 275.809C333.881 278.395 330.839 280.941 327.834 283.532C324.95 286.017 322.094 288.535 319.226 291.037C317.577 292.474 315.947 293.935 314.271 295.34C311.649 297.538 308.317 298.233 305.249 299.443C296.792 302.773 288.281 305.966 279.788 309.202C272.204 312.09 264.611 314.954 257.027 317.845C250.277 320.418 243.54 323.016 236.793 325.597C230.351 328.06 223.853 330.392 217.477 333.017C212.12 335.222 206.69 337.229 201.29 339.308C196.638 341.098 192.006 342.932 187.306 344.598C182.913 346.155 178.622 348.001 174.268 349.67C163.208 353.907 152.136 358.107 141.077 362.339C131.603 365.964 122.173 369.711 112.645 373.184C109.845 374.206 107.366 375.682 104.917 377.233C98.2679 381.448 91.7039 385.795 85.1057 390.093C74.7681 396.828 64.4354 403.57 54.0905 410.295C45.3799 415.956 36.6523 421.594 27.9319 427.24C19.6189 432.621 11.3011 437.995 2.99785 443.388C2.07337 443.988 1.10254 444.293 0.00975703 444.223V442.759H0Z" fill="#D756A6"/>
<path d="M472.501 97.5238C470.364 97.5457 468.354 98.2751 466.31 98.7385C455.87 101.105 445.462 103.607 435.034 106.025C423.265 108.752 411.488 111.442 399.711 114.138C398.982 114.303 398.304 114.562 397.743 115.047C395.164 117.265 392.603 119.504 390.027 121.726C387.391 124.002 384.756 126.278 382.105 128.537C379.27 130.951 376.411 133.339 373.572 135.747C369.56 139.15 365.545 142.552 361.544 145.97C358.834 148.285 356.153 150.631 353.441 152.944C349.499 156.307 345.535 159.644 341.596 163.008C338.825 165.374 336.086 167.779 333.315 170.145C329.434 173.455 325.551 176.761 321.638 180.034C320.272 181.178 319.065 182.495 317.574 183.512C316.786 184.049 316.03 184.364 315.103 184.317C315.023 184.313 314.94 184.32 314.859 184.317C303.492 183.981 292.142 184.754 280.783 184.944C273.733 185.061 266.66 184.939 259.627 185.396C255.898 185.637 252.18 185.703 248.455 185.781C247.47 185.801 246.487 185.869 246.141 184.566C245.97 183.93 245.399 184.061 244.933 184.274C244.34 184.542 243.733 184.793 243.187 185.139C239.876 187.223 236.283 188.757 232.822 190.545C226.619 193.75 220.362 196.86 214.191 200.129C204.646 205.183 195.011 210.059 185.42 215.02C175.541 220.131 165.652 225.226 155.771 230.334C146.107 235.33 136.493 240.428 126.758 245.289C114.265 251.529 101.851 257.942 89.2573 263.974C78.266 269.238 67.4991 274.95 56.4785 280.144C45.2336 285.442 34.2691 291.311 23.029 296.609C15.9722 299.936 9.05452 303.524 2.03434 306.917C1.37818 307.234 0.746408 307.619 -0.00488281 307.693V306.229C1.43672 304.975 3.2808 304.49 4.93705 303.643C14.6233 298.697 24.434 293.999 34.1764 289.162C46.2459 283.171 58.3421 277.238 70.4262 271.279C81.2004 265.967 91.9624 260.632 102.761 255.373C109.035 252.319 115.318 249.277 121.541 246.131C132.113 240.786 142.621 235.31 153.117 229.812C158.508 226.987 163.925 224.211 169.345 221.44C185.747 213.049 202.075 204.517 218.465 196.109C227.056 191.701 235.62 187.237 244.196 182.795C244.772 182.498 245.328 182.115 245.962 181.993C246.938 181.803 248.043 181.695 248.521 182.793C249.002 183.891 249.831 183.864 250.726 183.834C255.437 183.678 260.171 184.461 264.83 183.971C268.538 183.581 272.219 183.422 275.926 183.332C277.722 183.288 279.48 183.634 281.268 183.6C283.686 183.554 286.059 183.337 288.471 182.988C291.733 182.515 295.121 182.756 298.445 182.91C301.599 183.056 304.692 183.33 307.851 182.503C309.854 181.978 312.057 182.334 314.164 182.4C315.642 182.447 316.74 181.944 317.889 181.005C321.765 177.834 325.541 174.546 329.356 171.304C332.124 168.95 334.873 166.56 337.62 164.174C340.301 161.847 343.072 159.615 345.767 157.305C348.404 155.041 351.038 152.773 353.675 150.509C356.556 148.036 359.459 145.592 362.359 143.143C365.076 140.85 367.757 138.511 370.452 136.188C373.453 133.605 376.46 131.032 379.485 128.478C382.141 126.236 384.778 123.97 387.41 121.697C390.652 118.897 393.835 116.023 397.216 113.389C398.731 112.208 400.706 112.137 402.487 111.745C415.574 108.857 428.592 105.681 441.654 102.685C453.063 100.068 464.449 97.3506 475.855 94.726C484.822 92.6624 493.759 90.4597 502.758 88.5473C505.817 87.8961 508.763 86.5667 511.99 86.8033V88.2668C511.283 89.0962 510.412 89.5377 509.319 89.7865C498.14 92.3233 486.968 94.8943 475.821 97.5726C474.655 97.8531 473.599 97.4994 472.491 97.5311L472.501 97.5238Z" fill="#C5484F"/>
<path d="M512 86.7962C507.904 87.767 503.807 88.7378 499.711 89.7062C494.581 90.9161 489.454 92.1381 484.322 93.3285C478.241 94.7359 472.152 96.1044 466.071 97.5118C460.937 98.7022 455.814 99.9389 450.68 101.129C444.598 102.537 438.51 103.905 432.429 105.313C427.297 106.5 422.177 107.735 417.047 108.928C411.837 110.137 406.636 111.389 401.402 112.486C399.197 112.947 397.284 113.791 395.604 115.284C392.94 117.65 390.23 119.968 387.52 122.282C384.751 124.649 381.949 126.978 379.178 129.342C376.404 131.708 373.662 134.108 370.891 136.474C367.011 139.784 363.108 143.067 359.227 146.38C356.392 148.8 353.595 151.258 350.76 153.676C346.943 156.935 343.101 160.167 339.276 163.418C336.561 165.726 333.861 168.053 331.151 170.365C326.653 174.202 322.155 178.037 317.652 181.869C316.811 182.586 315.823 182.876 314.72 182.859C313.257 182.837 311.796 182.869 310.332 182.852C308.947 182.837 307.637 183.025 306.283 183.466C304.017 184.205 301.599 184.013 299.287 183.649C295.638 183.076 291.906 182.957 288.376 183.54C285.649 183.988 282.939 184.598 280.256 184.225C276.924 183.761 273.616 183.927 270.296 183.832C269.24 183.803 268.257 183.964 267.233 184.391C265.152 185.254 262.852 185.018 260.742 184.708C257.412 184.22 254.1 184.415 250.782 184.32C249.655 184.288 248.563 184.452 247.904 183.078C247.426 182.086 246.382 182.32 245.533 182.747C241.618 184.723 237.71 186.72 233.808 188.718C233.303 188.977 232.837 189.308 232.332 189.567C224.229 193.704 216.096 197.782 208.027 201.983C197.582 207.42 187.101 212.791 176.639 218.194C166.97 223.187 157.278 228.139 147.638 233.186C134.686 239.969 121.743 246.78 108.564 253.107C96.8434 258.732 85.3447 264.808 73.5899 270.355C63.9622 274.899 54.554 279.883 44.9506 284.466C31.6762 290.801 18.5725 297.472 5.3932 303.997C3.65645 304.858 1.80505 305.488 0.00488281 306.224C0.00488281 305.9 0.00488281 305.573 0.00488281 305.249C0.919604 305.144 1.68065 304.649 2.47585 304.251C6.7665 302.114 11.0108 299.88 15.3478 297.841C27.7002 292.033 39.7501 285.613 52.0733 279.756C63.228 274.453 74.1217 268.633 85.2911 263.379C96.3946 258.156 107.269 252.488 118.277 247.08C124.395 244.075 130.525 241.086 136.559 237.92C146.338 232.788 156.176 227.778 165.987 222.707C175.651 217.709 185.32 212.723 194.982 207.722C204.861 202.61 214.777 197.565 224.617 192.384C231.081 188.982 237.735 185.94 244.053 182.256C244.972 181.72 245.943 181.337 247.053 181.391C247.899 181.43 248.709 181.505 249.097 182.396C249.509 183.337 250.312 183.344 251.141 183.344C256.098 183.342 261.088 183.705 266.001 183.247C272.175 182.671 278.348 183.308 284.481 182.793C291.459 182.208 298.441 182.696 305.395 182.283C308.551 182.095 311.7 181.915 314.859 181.886C315.713 181.878 316.408 181.617 317.067 181.047C321.718 177.017 326.375 172.995 331.066 169.014C334.829 165.818 338.674 162.718 342.428 159.51C346.431 156.093 350.343 152.568 354.344 149.148C358.095 145.941 361.932 142.828 365.696 139.633C368.474 137.274 371.187 134.84 373.945 132.459C376.458 130.291 378.99 128.142 381.519 125.99C384.417 123.526 387.322 121.068 390.225 118.611C392.389 116.782 394.533 114.926 396.728 113.138C398.311 111.847 400.358 111.774 402.226 111.328C410.193 109.432 418.189 107.657 426.167 105.813C437.308 103.239 448.443 100.649 459.58 98.0582C474.033 94.6945 488.473 91.2649 502.95 88.006C505.936 87.3328 508.851 86.1302 512.005 86.3083V86.7962H512Z" fill="#E47330"/>
<path d="M439.344 210.164C439.02 209.676 438.696 209.191 438.369 208.703C439.696 208.276 441.057 208.181 442.445 208.205C444.55 208.239 446.66 208.264 448.765 208.205C455.797 208.007 462.832 207.82 469.859 207.598C473.809 207.473 477.77 207.303 481.726 207.254C483.851 207.227 485.649 206.329 487.427 205.366C489.844 204.053 492.196 202.622 494.618 201.326C500.399 198.233 506.204 195.189 512 192.125V194.565C510.458 194.87 509.153 195.726 507.805 196.445C501.95 199.57 496.125 202.748 490.291 205.907C489.935 206.1 489.549 206.254 489.227 206.493C486.366 208.637 483.061 209.222 479.604 209.186C471.591 209.098 463.591 209.605 455.59 209.837C450.177 209.993 444.757 209.976 439.344 210.169V210.164Z" fill="#D756A6"/>
<path d="M472.501 97.5241C477.35 95.9117 482.392 95.0726 487.337 93.8481C495.206 91.8967 503.131 90.177 511.034 88.3671C511.349 88.2964 511.678 88.2939 512 88.2622V90.2136C510.975 90.9332 509.7 90.7746 508.587 91.1893C500.265 93.1627 491.913 94.997 483.604 97.0289C482.831 97.2167 481.978 97.0338 481.28 97.5289C479.16 97.9924 477.06 98.5266 474.94 98.9925C474.616 99.2828 474.289 99.2681 473.965 98.9925C473.63 98.351 473.143 97.8631 472.501 97.5289V97.5241Z" fill="#C5484F"/>
<path d="M508.587 91.1842C509.634 90.5378 510.802 90.3231 512 90.2085V90.6963C510.88 90.9842 509.766 91.3037 508.587 91.1842Z" fill="#C5484F"/>
<path d="M510.536 13.6524C510.926 13.1987 511.458 13.1646 512 13.1646V13.6524H510.536Z" fill="#E47330"/>
<path d="M424.716 210.652C425.465 209.986 426.387 210.174 427.255 210.171C430.797 210.154 434.339 210.164 437.883 210.164C437.134 210.83 436.212 210.642 435.344 210.644C431.802 210.661 428.26 210.652 424.716 210.652Z" fill="#D756A6"/>
<path d="M412.524 211.14C413.193 210.53 414.02 210.659 414.812 210.657C417.137 210.647 419.464 210.652 421.789 210.652C421.12 211.262 420.293 211.133 419.501 211.135C417.176 211.145 414.849 211.14 412.524 211.14Z" fill="#D756A6"/>
<path d="M473.965 98.9873H474.94C473.443 99.8776 471.718 100.046 470.079 100.426C455.316 103.871 440.539 107.259 425.77 110.679C418.345 112.398 410.941 114.208 403.499 115.85C401.219 116.352 399.226 117.209 397.484 118.745C394.755 121.158 392.001 123.546 389.239 125.922C386.664 128.141 384.066 130.334 381.475 132.537C378.638 134.949 375.802 137.357 372.965 139.767C369.018 143.118 365.062 146.465 361.122 149.826C358.351 152.192 355.612 154.593 352.841 156.959C348.962 160.269 345.062 163.552 341.181 166.86C338.469 169.17 335.778 171.502 333.066 173.812C329.061 177.222 325.067 180.646 321.023 184.01C319.825 185.008 318.925 186.637 316.952 186.271C316.633 186.108 316.633 185.947 316.952 185.783C318.311 185.535 319.216 184.51 320.174 183.703C325.18 179.478 330.078 175.124 335.064 170.872C339.925 166.728 344.872 162.684 349.733 158.542C353.734 155.132 357.641 151.609 361.637 148.192C365.386 144.987 369.216 141.877 372.974 138.684C375.75 136.327 378.463 133.9 381.219 131.52C383.729 129.351 386.249 127.195 388.781 125.053C391.557 122.702 394.445 120.472 397.104 117.994C398.735 116.474 400.58 115.686 402.663 115.211C408.507 113.879 414.352 112.552 420.191 111.201C431.397 108.61 442.601 106 453.807 103.407C459.883 102.002 465.964 100.609 472.045 99.2288C472.672 99.0873 473.325 99.0629 473.967 98.9849L473.965 98.9873Z" fill="#C5484F"/>
<path d="M117.028 253.075C117.123 252.563 117.394 252.185 117.863 251.948C118.443 251.655 119.019 251.355 119.597 251.06C128.642 246.455 137.73 241.933 146.721 237.222C156.213 232.249 165.699 227.265 175.29 222.484C176.158 222.053 176.983 221.501 177.98 221.379C177.485 222.331 176.495 222.592 175.644 223.028C167.057 227.414 158.42 231.705 149.883 236.186C138.979 241.908 128.051 247.582 117.028 253.075Z" fill="#C5484F"/>
<path d="M481.28 97.5237C482.395 96.7944 483.705 96.6822 484.949 96.387C492.101 94.6942 499.258 93.0184 506.419 91.3646C507.119 91.2036 507.863 91.2402 508.585 91.1841C507.471 91.9134 506.161 92.0256 504.917 92.3208C497.765 94.0136 490.608 95.6894 483.446 97.3432C482.746 97.5042 482.002 97.4676 481.28 97.5237Z" fill="#C5484F"/>
<path d="M278.919 186.759C279.67 186.091 280.595 186.281 281.466 186.279C286.956 186.266 292.447 186.271 297.935 186.271C297.184 186.94 296.26 186.749 295.389 186.752C289.898 186.764 284.407 186.759 278.919 186.759Z" fill="#C5484F"/>
<path d="M259.413 187.244C260.164 186.576 261.088 186.766 261.959 186.764C267.287 186.752 272.614 186.757 277.944 186.757C277.192 187.425 276.268 187.235 275.397 187.237C270.07 187.249 264.742 187.244 259.413 187.244Z" fill="#C5484F"/>
<path d="M316.952 185.784V186.271H298.911C299.662 185.603 300.587 185.793 301.458 185.791C306.624 185.776 311.788 185.784 316.954 185.784H316.952Z" fill="#C5484F"/>
<path d="M198.46 210.652C201.114 208.647 203.978 207.059 207.237 206.264C206.927 206.886 206.373 207.23 205.768 207.478C203.312 208.488 201.197 210.293 198.458 210.654L198.46 210.652Z" fill="#C5484F"/>
<path d="M227.719 195.536C230.373 193.531 233.237 191.943 236.496 191.147C236.186 191.769 235.632 192.113 235.027 192.362C232.571 193.372 230.456 195.177 227.717 195.538L227.719 195.536Z" fill="#C5484F"/>
<path d="M184.32 217.965C186.66 216.143 189.187 214.694 192.121 214.064C189.835 215.994 187.23 217.289 184.32 217.965Z" fill="#C5484F"/>
<path d="M213.576 202.849C215.915 201.026 218.442 199.578 221.377 198.948C219.091 200.878 216.486 202.173 213.576 202.849Z" fill="#C5484F"/>
<path d="M246.248 187.245H258.439C256.481 187.935 248.209 187.935 246.248 187.245Z" fill="#C5484F"/>
<path d="M474.94 98.9875C476.963 98.1118 479.055 97.5312 481.28 97.5239C479.258 98.3996 477.165 98.9802 474.94 98.9875Z" fill="#C5484F"/>
<path d="M259.9 114.104C260.727 112.911 262.003 112.501 263.313 112.152C262.486 113.345 261.21 113.755 259.9 114.104Z" fill="#E47330"/>
<path d="M345.721 66.8039C346.548 65.6111 347.823 65.2014 349.133 64.8525C348.306 66.0453 347.031 66.4551 345.721 66.8039Z" fill="#E47330"/>
<path d="M269.652 108.739C270.479 107.547 271.755 107.137 273.065 106.788C272.238 107.981 270.962 108.391 269.652 108.739Z" fill="#E47330"/>
<path d="M379.368 48.2751C380.195 47.0823 381.471 46.6725 382.781 46.3237C381.954 47.5165 380.678 47.9263 379.368 48.2751Z" fill="#E47330"/>
<path d="M279.405 103.376C280.232 102.183 281.507 101.773 282.817 101.424C281.99 102.617 280.715 103.027 279.405 103.376Z" fill="#E47330"/>
<path d="M283.795 100.936C284.622 99.7435 285.898 99.3337 287.208 98.9849C286.381 100.178 285.105 100.587 283.795 100.936Z" fill="#E47330"/>
<path d="M255.512 116.54C256.339 115.347 257.615 114.938 258.925 114.589C258.098 115.782 256.822 116.191 255.512 116.54Z" fill="#E47330"/>
<path d="M374.979 50.7121C375.806 49.5194 377.082 49.1096 378.392 48.7607C377.568 49.9609 376.287 50.3585 374.979 50.7121Z" fill="#E47330"/>
<path d="M293.547 95.5725C294.374 94.3797 295.65 93.9699 296.96 93.6211C296.133 94.8139 294.857 95.2237 293.547 95.5725Z" fill="#E47330"/>
<path d="M265.264 111.177C266.091 109.984 267.367 109.574 268.677 109.225C267.85 110.418 266.574 110.828 265.264 111.177Z" fill="#E47330"/>
<path d="M245.76 121.905C246.587 120.712 247.862 120.302 249.172 119.953C248.345 121.146 247.07 121.556 245.76 121.905Z" fill="#E47330"/>
<path d="M241.372 124.343C242.199 123.151 243.475 122.741 244.785 122.392C243.958 123.585 242.682 123.995 241.372 124.343Z" fill="#E47330"/>
<path d="M303.3 90.2087C304.127 89.0159 305.402 88.6061 306.712 88.2573C305.885 89.4501 304.61 89.8599 303.3 90.2087Z" fill="#E47330"/>
<path d="M369.616 53.6394C370.443 52.4466 371.718 52.0368 373.028 51.688C372.201 52.8808 370.926 53.2906 369.616 53.6394Z" fill="#E47330"/>
<path d="M231.62 129.707C232.447 128.514 233.722 128.105 235.032 127.756C234.205 128.949 232.93 129.358 231.62 129.707Z" fill="#E47330"/>
<path d="M307.688 87.7717C308.515 86.5789 309.791 86.1691 311.101 85.8203C310.274 87.0131 308.998 87.4229 307.688 87.7717Z" fill="#E47330"/>
<path d="M351.085 63.8791C351.912 62.6863 353.188 62.2765 354.497 61.9277C353.671 63.1205 352.395 63.5303 351.085 63.8791Z" fill="#E47330"/>
<path d="M317.44 82.4079C318.267 81.2152 319.543 80.8054 320.852 80.4565C320.026 81.6493 318.75 82.0591 317.44 82.4079Z" fill="#E47330"/>
<path d="M365.228 56.0759C366.054 54.8831 367.33 54.4733 368.64 54.1245C367.813 55.3173 366.537 55.7271 365.228 56.0759Z" fill="#E47330"/>
<path d="M327.192 77.0437C328.019 75.8509 329.295 75.4411 330.605 75.0923C329.778 76.2851 328.502 76.6949 327.192 77.0437Z" fill="#E47330"/>
<path d="M331.58 74.6047C332.405 73.4046 333.685 73.007 334.993 72.6533C334.166 73.8461 332.89 74.2559 331.58 74.6047Z" fill="#E47330"/>
<path d="M355.476 61.4402C356.302 60.2474 357.578 59.8376 358.888 59.4888C358.061 60.6816 356.785 61.0914 355.476 61.4402Z" fill="#E47330"/>
<path d="M341.333 69.241C342.159 68.0482 343.435 67.6384 344.745 67.2896C343.918 68.4823 342.642 68.8921 341.333 69.241Z" fill="#E47330"/>
<path d="M313.052 84.8449C313.593 83.9033 314.493 83.5619 315.491 83.3813C314.949 84.3229 314.049 84.6644 313.052 84.8449Z" fill="#E47330"/>
<path d="M298.911 92.6476C299.453 91.7061 300.353 91.3646 301.35 91.1841C300.809 92.1256 299.909 92.4671 298.911 92.6476Z" fill="#E47330"/>
<path d="M336.944 71.6799C337.486 70.7383 338.386 70.3968 339.384 70.2163C338.842 71.1579 337.942 71.4994 336.944 71.6799Z" fill="#E47330"/>
<path d="M360.839 58.5153C361.381 57.5738 362.281 57.2323 363.279 57.0518C362.737 57.9933 361.837 58.3348 360.839 58.5153Z" fill="#E47330"/>
<path d="M322.804 79.4806C323.345 78.5391 324.245 78.1976 325.243 78.0171C324.701 78.9586 323.801 79.3001 322.804 79.4806Z" fill="#E47330"/>
<path d="M236.983 126.78C237.525 125.839 238.425 125.497 239.423 125.317C238.881 126.258 237.981 126.6 236.983 126.78Z" fill="#E47330"/>
<path d="M289.159 98.0119C289.701 97.0703 290.601 96.7288 291.598 96.5483C291.057 97.4899 290.157 97.8314 289.159 98.0119Z" fill="#E47330"/>
<path d="M275.017 105.813C275.558 104.871 276.458 104.53 277.456 104.349C276.914 105.291 276.014 105.632 275.017 105.813Z" fill="#E47330"/>
<path d="M251.124 118.98C251.666 118.038 252.566 117.697 253.563 117.516C253.022 118.458 252.122 118.799 251.124 118.98Z" fill="#E47330"/>
<path d="M386.681 44.8604C387.227 44.2799 387.947 44.3921 388.632 44.3726C388.086 44.9531 387.366 44.8409 386.681 44.8604Z" fill="#E47330"/>
<path d="M498.835 16.5796C499.382 15.9991 500.101 16.1113 500.787 16.0918C500.24 16.6723 499.521 16.5601 498.835 16.5796Z" fill="#E47330"/>
<path d="M502.736 15.6041C503.282 15.0235 504.002 15.1357 504.687 15.1162C504.141 15.6968 503.421 15.5845 502.736 15.6041Z" fill="#E47330"/>
<path d="M392.532 43.3995C393.079 42.8189 393.798 42.9311 394.484 42.9116C393.937 43.4922 393.218 43.38 392.532 43.3995Z" fill="#E47330"/>
<path d="M390.583 43.8848C391.13 43.3043 391.849 43.4165 392.535 43.397C391.989 43.9775 391.269 43.8653 390.583 43.8848Z" fill="#E47330"/>
<path d="M388.632 44.3726C389.178 43.7921 389.898 43.9043 390.583 43.8848C390.037 44.4653 389.317 44.3531 388.632 44.3726Z" fill="#E47330"/>
<path d="M400.336 41.4478C400.882 40.8673 401.602 40.9795 402.287 40.96C401.741 41.5405 401.021 41.4283 400.336 41.4478Z" fill="#E47330"/>
<path d="M384.731 45.3482C385.278 44.7677 385.997 44.8799 386.683 44.8604C386.136 45.4409 385.417 45.3287 384.731 45.3482Z" fill="#E47330"/>
<path d="M402.285 40.96C402.831 40.3795 403.551 40.4917 404.236 40.4722C403.69 41.0527 402.97 40.9405 402.285 40.96Z" fill="#E47330"/>
<path d="M404.236 40.4722C404.783 39.8917 405.502 40.0039 406.188 39.9844C405.641 40.5649 404.922 40.4527 404.236 40.4722Z" fill="#E47330"/>
<path d="M406.188 39.9844C406.734 39.4039 407.453 39.5161 408.139 39.4966C407.593 40.0771 406.873 39.9649 406.188 39.9844Z" fill="#E47330"/>
<path d="M408.137 39.4966C408.683 38.9161 409.403 39.0283 410.088 39.0088C409.542 39.5893 408.822 39.4771 408.137 39.4966Z" fill="#E47330"/>
<path d="M410.088 39.0084C410.634 38.4278 411.354 38.54 412.039 38.5205C411.493 39.1011 410.773 38.9888 410.088 39.0084Z" fill="#E47330"/>
<path d="M412.039 38.5206C412.585 37.94 413.305 38.0522 413.99 38.0327C413.444 38.6133 412.724 38.5011 412.039 38.5206Z" fill="#E47330"/>
<path d="M413.988 38.0352C414.535 37.4547 415.254 37.5669 415.94 37.5474C415.393 38.1279 414.674 38.0157 413.988 38.0352Z" fill="#E47330"/>
<path d="M415.939 37.5474C416.486 36.9669 417.205 37.0791 417.891 37.0596C417.344 37.6401 416.625 37.5279 415.939 37.5474Z" fill="#E47330"/>
<path d="M444.708 30.232C445.254 29.6514 445.974 29.7637 446.659 29.7441C446.113 30.3247 445.393 30.2125 444.708 30.232Z" fill="#E47330"/>
<path d="M419.352 36.5718C419.898 35.9913 420.618 36.1035 421.303 36.084C420.757 36.6645 420.037 36.5523 419.352 36.5718Z" fill="#E47330"/>
<path d="M421.304 36.084C421.85 35.5035 422.57 35.6157 423.255 35.5962C422.709 36.1767 421.989 36.0645 421.304 36.084Z" fill="#E47330"/>
<path d="M423.252 35.5962C423.799 35.0157 424.518 35.1279 425.204 35.1084C424.657 35.6889 423.938 35.5767 423.252 35.5962Z" fill="#E47330"/>
<path d="M425.204 35.1085C425.75 34.5279 426.47 34.6401 427.156 34.6206C426.609 35.2011 425.89 35.0889 425.204 35.1085Z" fill="#E47330"/>
<path d="M427.155 34.6202C427.702 34.0396 428.421 34.1518 429.107 34.1323C428.56 34.7129 427.841 34.6007 427.155 34.6202Z" fill="#E47330"/>
<path d="M429.104 34.1324C429.651 33.5518 430.37 33.664 431.056 33.6445C430.51 34.2251 429.79 34.1129 429.104 34.1324Z" fill="#E47330"/>
<path d="M431.056 33.6446C431.602 33.064 432.322 33.1763 433.007 33.1567C432.461 33.7373 431.741 33.6251 431.056 33.6446Z" fill="#E47330"/>
<path d="M433.005 33.1592C433.551 32.5787 434.271 32.6909 434.956 32.6714C434.41 33.2519 433.69 33.1397 433.005 33.1592Z" fill="#E47330"/>
<path d="M434.956 32.6714C435.502 32.0909 436.222 32.2031 436.907 32.1836C436.361 32.7641 435.641 32.6519 434.956 32.6714Z" fill="#E47330"/>
<path d="M436.907 32.1837C437.454 31.6031 438.173 31.7153 438.859 31.6958C438.312 32.2763 437.593 32.1641 436.907 32.1837Z" fill="#E47330"/>
<path d="M438.856 31.6959C439.403 31.1153 440.122 31.2275 440.808 31.208C440.261 31.7886 439.542 31.6763 438.856 31.6959Z" fill="#E47330"/>
<path d="M440.808 31.2081C441.354 30.6275 442.074 30.7397 442.759 30.7202C442.213 31.3008 441.493 31.1886 440.808 31.2081Z" fill="#E47330"/>
<path d="M506.636 14.628C507.182 14.0474 507.902 14.1597 508.587 14.1401C508.041 14.7207 507.321 14.6085 506.636 14.628Z" fill="#E47330"/>
<path d="M442.759 30.7198C443.306 30.1392 444.025 30.2514 444.711 30.2319C444.164 30.8125 443.445 30.7003 442.759 30.7198Z" fill="#E47330"/>
<path d="M500.784 16.0919C501.331 15.5113 502.05 15.6235 502.736 15.604C502.189 16.1845 501.47 16.0723 500.784 16.0919Z" fill="#E47330"/>
<path d="M446.66 29.7442C447.206 29.1637 447.926 29.2759 448.611 29.2563C448.065 29.8369 447.345 29.7247 446.66 29.7442Z" fill="#E47330"/>
<path d="M448.608 29.2564C449.155 28.6759 449.874 28.7881 450.56 28.7686C450.013 29.3491 449.294 29.2369 448.608 29.2564Z" fill="#E47330"/>
<path d="M508.587 14.1402C509.134 13.5597 509.853 13.6719 510.539 13.6523C509.992 14.2329 509.273 14.1207 508.587 14.1402Z" fill="#E47330"/>
<path d="M450.56 28.7686C451.106 28.1881 451.826 28.3003 452.511 28.2808C451.965 28.8613 451.245 28.7491 450.56 28.7686Z" fill="#E47330"/>
<path d="M452.512 28.2808C453.058 27.7003 453.778 27.8125 454.463 27.793C453.917 28.3735 453.197 28.2613 452.512 28.2808Z" fill="#E47330"/>
<path d="M396.436 42.4234C396.982 41.8429 397.702 41.9551 398.387 41.9355C397.841 42.5161 397.121 42.4039 396.436 42.4234Z" fill="#E47330"/>
<path d="M454.46 27.7955C455.007 27.2149 455.726 27.3271 456.412 27.3076C455.865 27.8882 455.146 27.776 454.46 27.7955Z" fill="#E47330"/>
<path d="M456.412 27.3077C456.959 26.7271 457.678 26.8393 458.364 26.8198C457.817 27.4004 457.098 27.2882 456.412 27.3077Z" fill="#E47330"/>
<path d="M458.361 26.8194C458.907 26.2389 459.627 26.3511 460.312 26.3315C459.766 26.9121 459.046 26.7999 458.361 26.8194Z" fill="#E47330"/>
<path d="M460.312 26.3316C460.858 25.7511 461.578 25.8633 462.263 25.8438C461.717 26.4243 460.997 26.3121 460.312 26.3316Z" fill="#E47330"/>
<path d="M462.264 25.8438C462.81 25.2633 463.53 25.3755 464.215 25.356C463.669 25.9365 462.949 25.8243 462.264 25.8438Z" fill="#E47330"/>
<path d="M464.212 25.356C464.759 24.7755 465.478 24.8877 466.164 24.8682C465.617 25.4487 464.898 25.3365 464.212 25.356Z" fill="#E47330"/>
<path d="M466.164 24.8682C466.71 24.2877 467.43 24.3999 468.115 24.3804C467.569 24.9609 466.849 24.8487 466.164 24.8682Z" fill="#E47330"/>
<path d="M468.115 24.3804C468.662 23.7999 469.381 23.9121 470.067 23.8926C469.52 24.4731 468.801 24.3609 468.115 24.3804Z" fill="#E47330"/>
<path d="M470.064 23.8926C470.611 23.3121 471.33 23.4243 472.016 23.4048C471.469 23.9853 470.75 23.8731 470.064 23.8926Z" fill="#E47330"/>
<path d="M472.016 23.4048C472.562 22.8243 473.282 22.9365 473.967 22.917C473.421 23.4975 472.701 23.3853 472.016 23.4048Z" fill="#E47330"/>
<path d="M473.965 22.9195C474.511 22.3389 475.231 22.4512 475.916 22.4316C475.37 23.0122 474.65 22.9 473.965 22.9195Z" fill="#E47330"/>
<path d="M475.916 22.4312C476.462 21.8507 477.182 21.9629 477.867 21.9434C477.321 22.5239 476.601 22.4117 475.916 22.4312Z" fill="#E47330"/>
<path d="M477.867 21.9434C478.414 21.3629 479.133 21.4751 479.819 21.4556C479.272 22.0361 478.553 21.9239 477.867 21.9434Z" fill="#E47330"/>
<path d="M479.816 21.4556C480.363 20.8751 481.082 20.9873 481.768 20.9678C481.221 21.5483 480.502 21.4361 479.816 21.4556Z" fill="#E47330"/>
<path d="M481.768 20.9678C482.314 20.3873 483.034 20.4995 483.719 20.48C483.173 21.0605 482.453 20.9483 481.768 20.9678Z" fill="#E47330"/>
<path d="M483.719 20.48C484.266 19.8995 484.985 20.0117 485.671 19.9922C485.124 20.5727 484.405 20.4605 483.719 20.48Z" fill="#E47330"/>
<path d="M485.668 19.9922C486.214 19.4117 486.934 19.5239 487.619 19.5044C487.073 20.0849 486.353 19.9727 485.668 19.9922Z" fill="#E47330"/>
<path d="M398.384 41.9356C398.931 41.3551 399.65 41.4673 400.336 41.4478C399.789 42.0283 399.07 41.9161 398.384 41.9356Z" fill="#E47330"/>
<path d="M487.62 19.5045C488.166 18.9239 488.886 19.0361 489.571 19.0166C489.025 19.5971 488.305 19.4849 487.62 19.5045Z" fill="#E47330"/>
<path d="M394.484 42.9112C395.03 42.3306 395.75 42.4429 396.435 42.4233C395.889 43.0039 395.169 42.8917 394.484 42.9112Z" fill="#E47330"/>
<path d="M491.032 18.5284C491.579 17.9478 492.298 18.06 492.984 18.0405C492.437 18.6211 491.718 18.5089 491.032 18.5284Z" fill="#E47330"/>
<path d="M492.983 18.0406C493.53 17.46 494.249 17.5722 494.935 17.5527C494.388 18.1333 493.669 18.0211 492.983 18.0406Z" fill="#E47330"/>
<path d="M494.933 17.5552C495.479 16.9747 496.199 17.0869 496.884 17.0674C496.338 17.6479 495.618 17.5357 494.933 17.5552Z" fill="#E47330"/>
<path d="M496.884 17.0674C497.43 16.4869 498.15 16.5991 498.835 16.5796C498.289 17.1601 497.569 17.0479 496.884 17.0674Z" fill="#E47330"/>
<path d="M504.685 15.1163C505.231 14.5357 505.951 14.6479 506.636 14.6284C506.09 15.209 505.37 15.0968 504.685 15.1163Z" fill="#E47330"/>
<path d="M489.568 19.0167C489.959 18.563 490.49 18.5288 491.032 18.5288C490.642 18.9825 490.11 19.0167 489.568 19.0167Z" fill="#E47330"/>
<path d="M417.889 37.0596C418.279 36.6059 418.811 36.5718 419.352 36.5718C418.962 37.0255 418.43 37.0596 417.889 37.0596Z" fill="#E47330"/>
</g>
<defs>
<clipPath id="clip0_721_10622">
<rect width="512" height="512" fill="white"/>
</clipPath>
</defs>
</svg>
